<svg id="logo" xmlns="http://www.w3.org/2000/svg" width="120.733" height="24.657" viewBox="0 0 120.733 24.657">
  <g id="badge" transform="translate(29.809)">
    <path id="badge-bg" d="M12.431,0H78.493a12.329,12.329,0,1,1,0,24.657H12.431A12.329,12.329,0,1,1,12.431,0Z" transform="translate(0)" fill="#009ac2"/>
    <path id="cuotas" d="M7.885-6.276a6.331,6.331,0,0,0,4.292-1.577,3.14,3.14,0,0,0-1.551-1.991A3.811,3.811,0,0,1,7.911-8.81c-2.456,0-3.568-1.862-3.568-3.956,0-2.146,1.138-3.982,3.542-3.982a3.823,3.823,0,0,1,2.534.957A3.534,3.534,0,0,0,12-17.886a6.522,6.522,0,0,0-4.137-1.4,6.259,6.259,0,0,0-6.49,6.542C1.369-8.655,3.98-6.276,7.885-6.276Zm16.341-12.67a7.257,7.257,0,0,0-1.474.129v9.463a6.38,6.38,0,0,1-2.508.465c-2.456,0-2.973-1.112-2.973-3.1v-6.826a6.857,6.857,0,0,0-1.448-.129,7.508,7.508,0,0,0-1.5.129v7.679c0,2.973,1.707,4.861,5.533,4.861A13.1,13.1,0,0,0,25.7-7.569V-18.816A7.1,7.1,0,0,0,24.226-18.946Zm10.5,12.67a6.3,6.3,0,0,0,6.542-6.49,6.211,6.211,0,0,0-6.438-6.516,6.309,6.309,0,0,0-6.542,6.516A6.19,6.19,0,0,0,34.724-6.276Zm.052-2.56c-2.2,0-3.542-1.6-3.542-3.93,0-2.353,1.345-3.982,3.542-3.982s3.542,1.629,3.542,3.982C38.318-10.439,36.973-8.836,34.775-8.836Zm16.91-.827a3.177,3.177,0,0,1-2.043.827c-1.215,0-2.068-.465-2.068-2.275V-16.36h4.577a4.86,4.86,0,0,0,.129-1.215,4.463,4.463,0,0,0-.129-1.164H47.574V-22a6.472,6.472,0,0,0-1.422-.129A7.1,7.1,0,0,0,44.678-22v3.258H42.584a5.9,5.9,0,0,0-.1,1.164,6.082,6.082,0,0,0,.1,1.215h2.094v5.921c0,2.948,1.939,4.137,4.577,4.137a5.587,5.587,0,0,0,3.672-1.319A3.08,3.08,0,0,0,51.685-9.663Zm7.679-9.593A7.618,7.618,0,0,0,54.4-17.524a2.47,2.47,0,0,0,1.345,1.888,5.927,5.927,0,0,1,3.413-1.086c1.965,0,2.948.879,2.948,2.353v.7a8.856,8.856,0,0,0-3.025-.465c-2.973-.026-5.171,1.345-5.171,3.878,0,2.456,1.784,3.982,5.4,3.982a13.86,13.86,0,0,0,5.663-1.215v-6.7C64.975-17.808,62.6-19.256,59.365-19.256Zm-2.482,8.869c0-1.164.983-1.655,2.43-1.655a7.271,7.271,0,0,1,2.792.491v2.637a8.543,8.543,0,0,1-2.534.388C57.761-8.526,56.882-9.275,56.882-10.387ZM72.241-6.25c3.361,0,5.326-1.551,5.326-4.111,0-2.43-1.939-3.335-4.6-3.749-2.094-.336-2.637-.724-2.637-1.526,0-.776.672-1.267,2.224-1.267a7.332,7.332,0,0,1,3.594.931,3.144,3.144,0,0,0,1.112-2.094,8.177,8.177,0,0,0-4.6-1.189c-3.1,0-5.145,1.551-5.145,3.827,0,2.586,2.068,3.387,4.24,3.723,2.2.336,2.9.8,2.9,1.629S74.025-8.6,72.293-8.6a5.926,5.926,0,0,1-3.775-1.215A3.24,3.24,0,0,0,67.173-7.8,7.765,7.765,0,0,0,72.241-6.25Z" transform="translate(5.51 25.208)" fill="#fff"/>
  </g>
  <path id="en" d="M12.99-12.541a5.236,5.236,0,0,0-5.43-5.4c-3.31,0-5.9,2.715-5.9,6.49,0,3.9,2.508,6.412,6.076,6.412A7.187,7.187,0,0,0,12.525-6.8a2.391,2.391,0,0,0-1.138-1.422,5.208,5.208,0,0,1-3.62,1.267,3.944,3.944,0,0,1-3.93-3.93h9.05A12.357,12.357,0,0,0,12.99-12.541Zm-9.127-.078a3.708,3.708,0,0,1,3.7-3.465,3.16,3.16,0,0,1,3.258,3.465Zm17.66-5.326a9.163,9.163,0,0,0-5.585,1.862V-5.4a4.838,4.838,0,0,0,1.034.1,4.913,4.913,0,0,0,1.06-.1v-9.748a6.749,6.749,0,0,1,3.284-.853c2.353,0,3.568,1.086,3.568,3.749V-5.4a4.838,4.838,0,0,0,1.034.1,4.913,4.913,0,0,0,1.06-.1v-7.576C26.978-15.618,25.323-17.945,21.523-17.945Z" transform="translate(-1.665 24.324)"/>
</svg>
